<svg width="16" height="16" fill="none" xmlns="http://www.w3.org/2000/svg"><path d="M11.265 15l-.035-.016-.036-.013c-2.96-1.07-5.004-2.216-6.546-3.818-1.542-1.6-2.662-3.735-3.625-6.921l-.009-.03c.835-1.275 1.582-1.896 2.869-2.668.256-.153.645-.114.919.18.688.74 1.148 1.298 1.541 1.877.14.206.158.526-.052.833l-.01.016-.01.016-.953 1.518-.319.507.297.52c.442.774.904 1.482 1.53 2.122.63.646 1.394 1.19 2.407 1.688l.487.24.466-.278 1.16-.69.095-.056.081-.077c.406-.385.968-.352 1.244-.089.606.577 1.061 1.167 1.386 1.917a.356.356 0 010 .31c-.639 1.21-1.443 1.822-2.818 2.867l-.055.042-.009.003a.02.02 0 01-.005 0zm0 0h0s0 0 0 0z" stroke="#000" stroke-width="2"/></svg>