<svg width="24" height="24" fill="none" xmlns="http://www.w3.org/2000/svg"><rect width="24" height="24" rx="12" fill="#F0F2F4"/><rect width="24" height="24" rx="12" fill="#F6F6F6"/><path d="M11.052 13.566c0-.486.107-.887.322-1.204.224-.318.546-.668.966-1.05.308-.28.532-.514.672-.7.149-.196.224-.416.224-.658a.937.937 0 00-.42-.812c-.271-.206-.635-.308-1.092-.308-.439 0-.831.093-1.176.28-.336.177-.621.43-.854.756L8 8.876A3.92 3.92 0 019.582 7.49c.672-.327 1.465-.49 2.38-.49 1.073 0 1.932.228 2.576.686.653.457.98 1.092.98 1.904 0 .382-.066.718-.196 1.008-.122.29-.276.536-.462.742-.178.196-.411.424-.7.686-.346.308-.598.57-.756.784a1.2 1.2 0 00-.238.756h-2.114zm1.064 3.514c-.383 0-.705-.122-.966-.364a1.24 1.24 0 01-.378-.91c0-.355.126-.649.378-.882.252-.243.574-.364.966-.364s.714.121.966.364c.252.233.378.527.378.882 0 .354-.131.658-.392.91-.252.242-.57.364-.952.364z" fill="#ACB8CA"/><path d="M11.052 13.566c0-.486.107-.887.322-1.204.224-.318.546-.668.966-1.05.308-.28.532-.514.672-.7.149-.196.224-.416.224-.658a.937.937 0 00-.42-.812c-.271-.206-.635-.308-1.092-.308-.439 0-.831.093-1.176.28-.336.177-.621.43-.854.756L8 8.876A3.92 3.92 0 019.582 7.49c.672-.327 1.465-.49 2.38-.49 1.073 0 1.932.228 2.576.686.653.457.98 1.092.98 1.904 0 .382-.066.718-.196 1.008-.122.29-.276.536-.462.742-.178.196-.411.424-.7.686-.346.308-.598.57-.756.784a1.2 1.2 0 00-.238.756h-2.114zm1.064 3.514c-.383 0-.705-.122-.966-.364a1.24 1.24 0 01-.378-.91c0-.355.126-.649.378-.882.252-.243.574-.364.966-.364s.714.121.966.364c.252.233.378.527.378.882 0 .354-.131.658-.392.91-.252.242-.57.364-.952.364z" fill="#909EB7"/><path d="M11.052 13.566c0-.486.107-.887.322-1.204.224-.318.546-.668.966-1.05.308-.28.532-.514.672-.7.149-.196.224-.416.224-.658a.937.937 0 00-.42-.812c-.271-.206-.635-.308-1.092-.308-.439 0-.831.093-1.176.28-.336.177-.621.43-.854.756L8 8.876A3.92 3.92 0 019.582 7.49c.672-.327 1.465-.49 2.38-.49 1.073 0 1.932.228 2.576.686.653.457.98 1.092.98 1.904 0 .382-.066.718-.196 1.008-.122.29-.276.536-.462.742-.178.196-.411.424-.7.686-.346.308-.598.57-.756.784a1.2 1.2 0 00-.238.756h-2.114zm1.064 3.514c-.383 0-.705-.122-.966-.364a1.24 1.24 0 01-.378-.91c0-.355.126-.649.378-.882.252-.243.574-.364.966-.364s.714.121.966.364c.252.233.378.527.378.882 0 .354-.131.658-.392.91-.252.242-.57.364-.952.364z" fill="#9A9A9A"/></svg>