<svg xmlns="http://www.w3.org/2000/svg" xmlns:xlink="http://www.w3.org/1999/xlink"><symbol id="icon-arrow-left"><path d="M7 12.5L2 7l5-5.5" stroke="#fff" stroke-width="2"/></symbol><symbol id="icon-arrow-up" viewBox="0 0 13 8">
<path d="M12 7L6.5 2L1 7" stroke="#4633B9" stroke-width="2"/>
<path d="M12 7L6.5 2L1 7" stroke="#1767F9" stroke-width="2"/>
<path d="M12 7L6.5 2L1 7" stroke="black" stroke-width="2"/>
</symbol><symbol id="icon-bonus"><path d="M1 7V6H0v1h1zm0 5H0v1h1v-1zm0-4h3V6H1v2zm4 1v1h2V9H5zm-1 2H1v2h3v-2zm-2 1V7H0v5h2zm3-2a1 1 0 01-1 1v2a3 3 0 003-3H5zM4 8a1 1 0 011 1h2a3 3 0 00-3-3v2z" fill="#000"/><path d="M9 7h3a2 2 0 012 2v1a2 2 0 01-2 2H9V7zM6 2H1v6" stroke="#000" stroke-width="2"/><path d="M14 2H9v6" stroke="#000" stroke-width="2"/></symbol><symbol id="icon-cart" viewBox="0 0 21 20">
<path d="M6.5 17.5C6.5 18.3284 5.82843 19 5 19C4.17157 19 3.5 18.3284 3.5 17.5C3.5 16.6716 4.17157 16 5 16C5.82843 16 6.5 16.6716 6.5 17.5Z" stroke="white" stroke-width="2"/>
<path d="M17.5 17.5C17.5 18.3284 16.8284 19 16 19C15.1716 19 14.5 18.3284 14.5 17.5C14.5 16.6716 15.1716 16 16 16C16.8284 16 17.5 16.6716 17.5 17.5Z" stroke="white" stroke-width="2"/>
<path d="M2.5 7C2.5 5.89543 3.39543 5 4.5 5H15.5C16.6046 5 17.5 5.89543 17.5 7V8.35742C17.5 11.5993 14.4624 13.984 11.3132 13.2145L6.3132 11.9928C4.07477 11.4459 2.5 9.43998 2.5 7.1357V7Z" stroke="white" stroke-width="2"/>
<path d="M20.5 1H18.5C17.9477 1 17.5 1.44772 17.5 2V9" stroke="white" stroke-width="2"/>
<path d="M5.5 17L14.5 17" stroke="white" stroke-width="2"/>
</symbol><symbol id="icon-close"><rect width="16" height="16" rx="8" fill="#000"/><path d="M5 5l6 6m-6 0l6-6" stroke="#fff" stroke-width="2"/></symbol><symbol id="icon-phone"><path d="M11.265 15l-.035-.016-.036-.013c-2.96-1.07-5.004-2.216-6.546-3.818-1.542-1.6-2.662-3.735-3.625-6.921l-.009-.03c.835-1.275 1.582-1.896 2.869-2.668.256-.153.645-.114.919.18.688.74 1.148 1.298 1.541 1.877.14.206.158.526-.052.833l-.01.016-.01.016-.953 1.518-.319.507.297.52c.442.774.904 1.482 1.53 2.122.63.646 1.394 1.19 2.407 1.688l.487.24.466-.278 1.16-.69.095-.056.081-.077c.406-.385.968-.352 1.244-.089.606.577 1.061 1.167 1.386 1.917a.356.356 0 010 .31c-.639 1.21-1.443 1.822-2.818 2.867l-.055.042-.009.003a.02.02 0 01-.005 0zm0 0h0s0 0 0 0z" stroke="#000" stroke-width="2"/></symbol><symbol id="icon-question"><rect width="24" height="24" rx="12" fill="#F0F2F4"/><rect width="24" height="24" rx="12" fill="#F6F6F6"/><path d="M11.052 13.566c0-.486.107-.887.322-1.204.224-.318.546-.668.966-1.05.308-.28.532-.514.672-.7.149-.196.224-.416.224-.658a.937.937 0 00-.42-.812c-.271-.206-.635-.308-1.092-.308-.439 0-.831.093-1.176.28-.336.177-.621.43-.854.756L8 8.876A3.92 3.92 0 019.582 7.49c.672-.327 1.465-.49 2.38-.49 1.073 0 1.932.228 2.576.686.653.457.98 1.092.98 1.904 0 .382-.066.718-.196 1.008-.122.29-.276.536-.462.742-.178.196-.411.424-.7.686-.346.308-.598.57-.756.784a1.2 1.2 0 00-.238.756h-2.114zm1.064 3.514c-.383 0-.705-.122-.966-.364a1.24 1.24 0 01-.378-.91c0-.355.126-.649.378-.882.252-.243.574-.364.966-.364s.714.121.966.364c.252.233.378.527.378.882 0 .354-.131.658-.392.91-.252.242-.57.364-.952.364z" fill="#ACB8CA"/><path d="M11.052 13.566c0-.486.107-.887.322-1.204.224-.318.546-.668.966-1.05.308-.28.532-.514.672-.7.149-.196.224-.416.224-.658a.937.937 0 00-.42-.812c-.271-.206-.635-.308-1.092-.308-.439 0-.831.093-1.176.28-.336.177-.621.43-.854.756L8 8.876A3.92 3.92 0 019.582 7.49c.672-.327 1.465-.49 2.38-.49 1.073 0 1.932.228 2.576.686.653.457.98 1.092.98 1.904 0 .382-.066.718-.196 1.008-.122.29-.276.536-.462.742-.178.196-.411.424-.7.686-.346.308-.598.57-.756.784a1.2 1.2 0 00-.238.756h-2.114zm1.064 3.514c-.383 0-.705-.122-.966-.364a1.24 1.24 0 01-.378-.91c0-.355.126-.649.378-.882.252-.243.574-.364.966-.364s.714.121.966.364c.252.233.378.527.378.882 0 .354-.131.658-.392.91-.252.242-.57.364-.952.364z" fill="#909EB7"/><path d="M11.052 13.566c0-.486.107-.887.322-1.204.224-.318.546-.668.966-1.05.308-.28.532-.514.672-.7.149-.196.224-.416.224-.658a.937.937 0 00-.42-.812c-.271-.206-.635-.308-1.092-.308-.439 0-.831.093-1.176.28-.336.177-.621.43-.854.756L8 8.876A3.92 3.92 0 019.582 7.49c.672-.327 1.465-.49 2.38-.49 1.073 0 1.932.228 2.576.686.653.457.98 1.092.98 1.904 0 .382-.066.718-.196 1.008-.122.29-.276.536-.462.742-.178.196-.411.424-.7.686-.346.308-.598.57-.756.784a1.2 1.2 0 00-.238.756h-2.114zm1.064 3.514c-.383 0-.705-.122-.966-.364a1.24 1.24 0 01-.378-.91c0-.355.126-.649.378-.882.252-.243.574-.364.966-.364s.714.121.966.364c.252.233.378.527.378.882 0 .354-.131.658-.392.91-.252.242-.57.364-.952.364z" fill="#9A9A9A"/></symbol><symbol id="icon-tick"><path d="M1 1l5 4 5-4" stroke="#000" stroke-width="2"/></symbol></svg>